<svg width="24" height="24" viewBox="0 0 24 24" fill="none" xmlns="http://www.w3.org/2000/svg">
<g id="Frame" clip-path="url(#clip0_0_393)">
<g id="Group">
<path id="Vector" d="M22.1205 9.25051C21.6564 9.25051 21.2193 8.96935 21.0421 8.51101C20.5818 7.31895 19.8982 6.24244 19.0114 5.31229C17.9628 4.21268 16.6561 3.3663 15.232 2.86271C14.6302 2.64991 14.3154 1.98937 14.5282 1.38852C14.741 0.786718 15.4015 0.471853 16.0033 0.684652C17.7673 1.3086 19.3859 2.35815 20.6839 3.71775C21.7816 4.86937 22.628 6.202 23.198 7.67907C23.4281 8.27414 23.1316 8.94335 22.5365 9.17348C22.3998 9.22547 22.2592 9.25051 22.1205 9.25051Z" fill="white"/>
<path id="Vector_2" d="M5.45852 14.2122C5.74739 14.2122 6.01892 14.3874 6.12966 14.6724C6.4166 15.4148 6.84123 16.084 7.39297 16.6627C8.0458 17.3464 8.85848 17.874 9.74434 18.187C10.1189 18.3198 10.3153 18.73 10.1825 19.1046C10.0496 19.4792 9.63939 19.6756 9.26482 19.5427C8.16713 19.1547 7.15995 18.5018 6.35208 17.6554C5.66843 16.9391 5.1427 16.11 4.78739 15.1905C4.64392 14.8197 4.82879 14.4038 5.19951 14.2603C5.2852 14.2276 5.37283 14.2122 5.45852 14.2122Z" fill="white"/>
<path id="Vector_3" d="M22.8445 10.845C22.2061 10.845 21.6891 11.3621 21.6891 12.0005C21.6891 17.3426 17.3426 21.69 11.9995 21.69C7.04835 21.69 2.95222 17.9559 2.3793 13.1559H6.26552C6.86058 13.1559 7.34299 12.6735 7.34299 12.0785C7.34299 9.52875 9.36024 7.39306 11.91 7.34395C14.5184 7.29484 16.657 9.40261 16.657 11.9995C16.657 14.193 15.1328 16.0359 13.0876 16.527V18.8822C16.5511 18.3373 19.1759 15.2319 18.9554 11.571C18.7407 8.00738 15.8106 5.15819 12.2422 5.03687C8.68718 4.91555 5.6926 7.47394 5.12834 10.845H2.38026C2.95318 6.04501 7.04834 2.31093 12.0005 2.31093C12.6389 2.31093 13.1559 1.79386 13.1559 1.15547C13.1559 0.517071 12.6389 0 12.0005 0C5.38351 0 0 5.38351 0 12.0005C0 18.6175 5.38351 24.001 12.0005 24.001C18.6175 24.001 24.001 18.6175 24.001 12.0005C24 11.3621 23.4829 10.845 22.8445 10.845Z" fill="white"/>
<path id="Vector_4" d="M13.1444 18.8745H12.1218C11.4102 18.8745 10.8334 18.2977 10.8334 17.5861V15.5564C9.37371 15.0499 8.34534 13.6113 8.46474 11.9561C8.58992 10.2191 9.99862 8.81324 11.7366 8.69192C13.1723 8.59178 14.4433 9.35438 15.0836 10.5118C15.5073 11.2773 14.9546 12.2161 14.0793 12.2161C13.6624 12.2161 13.2638 12.0023 13.0645 11.6355C12.8507 11.2407 12.4241 10.9759 11.9398 10.9942C11.311 11.0183 10.7911 11.5392 10.766 12.1679C10.7391 12.8641 11.2976 13.439 11.988 13.439H12.6408C12.9181 13.439 13.1434 13.6643 13.1434 13.9416V18.8745H13.1444Z" fill="white"/>
<path id="Vector_5" d="M24.0001 12.0004C24.0001 11.362 23.483 10.845 22.8446 10.845C22.2062 10.845 21.6891 11.362 21.6891 12.0004C21.6891 17.3425 17.3427 21.69 11.9996 21.69C11.2784 21.69 10.5745 21.6101 9.8976 21.4599C8.95108 21.8402 7.64926 22.234 6.03931 22.4131C7.79658 23.4222 9.83116 24.0009 11.9996 24.0009C18.6166 24 24.0001 18.6164 24.0001 12.0004Z" fill="white"/>
</g>
</g>
<defs>
<clipPath id="clip0_0_393">
<rect width="24" height="24" fill="white"/>
</clipPath>
</defs>
</svg>
