<svg width="11" height="11" viewBox="0 0 11 11" fill="none" xmlns="http://www.w3.org/2000/svg">
<path id="&#244;&#128;&#133;&#190;" d="M0.337891 8.90333C-0.107422 9.34083 -0.123047 10.1611 0.353516 10.6377C0.822266 11.1065 1.64258 11.0908 2.08008 10.6455L5.49414 7.23926L8.89258 10.6455C9.35352 11.0986 10.1582 11.1065 10.627 10.6299C11.1035 10.1533 11.0957 9.35645 10.6426 8.89551L7.23633 5.49708L10.6426 2.09083C11.0957 1.62989 11.1035 0.833014 10.627 0.356451C10.1582 -0.120111 9.35352 -0.112299 8.89258 0.340826L5.49414 3.74708L2.08008 0.340826C1.64258 -0.104486 0.822266 -0.120111 0.353516 0.356451C-0.123047 0.825202 -0.107422 1.64551 0.337891 2.08301L3.74414 5.49708L0.337891 8.90333Z" fill="#CCCCCC"/>
</svg>
