<svg width="30" height="30" viewBox="0 0 30 30" fill="none" xmlns="http://www.w3.org/2000/svg">
<g id="Image">
<g id="Fill 1" opacity="0.4">
<path d="M21.4992 30H8.49927C3.41534 30 0 26.4343 0 21.1264V8.87508C0 3.56717 3.41534 0 8.49927 0H21.5007C26.5847 0 30 3.56717 30 8.87508V21.1264C30 26.4343 26.5847 30 21.4992 30Z" fill="#94A3B8"/>
<path d="M21.4992 30H8.49927C3.41534 30 0 26.4343 0 21.1264V8.87508C0 3.56717 3.41534 0 8.49927 0H21.5007C26.5847 0 30 3.56717 30 8.87508V21.1264C30 26.4343 26.5847 30 21.4992 30Z" fill="white" fill-opacity="0.2"/>
</g>
<g id="Combined Shape">
<path fill-rule="evenodd" clip-rule="evenodd" d="M13.8674 10.0124C13.8674 12.0674 12.1949 13.7399 10.1399 13.7399C8.0834 13.7399 6.4124 12.0674 6.4124 10.0124C6.4124 7.95745 8.0834 6.28345 10.1399 6.28345C12.1949 6.28345 13.8674 7.95745 13.8674 10.0124ZM26.1005 18.1313C26.45 18.4703 26.7005 18.8573 26.8655 19.2698C27.365 20.5178 27.1055 22.0178 26.5715 23.2538C25.9385 24.7253 24.7265 25.8368 23.1995 26.3228C22.5215 26.5403 21.8105 26.6333 21.101 26.6333H8.5295C7.2785 26.6333 6.1715 26.3423 5.264 25.7963C4.6955 25.4543 4.595 24.6668 5.0165 24.1538C5.7215 23.2988 6.4175 22.4408 7.1195 21.5753C8.4575 19.9193 9.359 19.4393 10.361 19.8608C10.7675 20.0348 11.1755 20.2973 11.5955 20.5733C12.7145 21.3143 14.27 22.3313 16.319 21.2273C17.7196 20.4615 18.5326 19.151 19.2402 18.0103L19.2545 17.9873C19.3021 17.911 19.3493 17.8347 19.3964 17.7586C19.637 17.3698 19.874 16.9869 20.1425 16.6343C20.4755 16.1978 21.7115 14.8328 23.309 15.8048C24.3275 16.4168 25.184 17.2448 26.1005 18.1313Z" fill="#94A3B8"/>
<path fill-rule="evenodd" clip-rule="evenodd" d="M13.8674 10.0124C13.8674 12.0674 12.1949 13.7399 10.1399 13.7399C8.0834 13.7399 6.4124 12.0674 6.4124 10.0124C6.4124 7.95745 8.0834 6.28345 10.1399 6.28345C12.1949 6.28345 13.8674 7.95745 13.8674 10.0124ZM26.1005 18.1313C26.45 18.4703 26.7005 18.8573 26.8655 19.2698C27.365 20.5178 27.1055 22.0178 26.5715 23.2538C25.9385 24.7253 24.7265 25.8368 23.1995 26.3228C22.5215 26.5403 21.8105 26.6333 21.101 26.6333H8.5295C7.2785 26.6333 6.1715 26.3423 5.264 25.7963C4.6955 25.4543 4.595 24.6668 5.0165 24.1538C5.7215 23.2988 6.4175 22.4408 7.1195 21.5753C8.4575 19.9193 9.359 19.4393 10.361 19.8608C10.7675 20.0348 11.1755 20.2973 11.5955 20.5733C12.7145 21.3143 14.27 22.3313 16.319 21.2273C17.7196 20.4615 18.5326 19.151 19.2402 18.0103L19.2545 17.9873C19.3021 17.911 19.3493 17.8347 19.3964 17.7586C19.637 17.3698 19.874 16.9869 20.1425 16.6343C20.4755 16.1978 21.7115 14.8328 23.309 15.8048C24.3275 16.4168 25.184 17.2448 26.1005 18.1313Z" fill="white" fill-opacity="0.2"/>
</g>
</g>
</svg>
